#N canvas 1034 22 502 238 10;
#X obj 59 -28 inlet;
#X obj 221 -28 inlet;
#X obj 126 148 outlet~;
#N canvas 367 208 610 547 main_sound 1;
#X obj 67 8 inlet;
#X obj 152 410 outlet~;
#X obj 262 8 inlet;
#X obj 152 379 *~;
#X obj 369 198 line~;
#X obj 121 119 + 12;
#X obj 121 227 osc~;
#X obj 137 335 +~;
#X obj 146 262 *~;
#X obj 121 199 line~;
#X msg 121 173 \$1 5;
#X obj 161 145 line~;
#X msg 161 119 \$1 5;
#X msg 369 173 \$1 100;
#X obj 167 300 *~;
#X msg 316 173 \$1 100;
#X obj 316 198 line~;
#X obj 207 119 t f f;
#X obj 316 147 * 8;
#X obj 113 300 *~ 0.5;
#X obj 161 228 +~;
#X obj 161 199 *~;
#X obj 207 93 * 4;
#X msg 207 147 \$1 100;
#X obj 207 173 line~;
#X msg 263 147 \$1 100;
#X obj 263 173 line~;
#X obj 161 173 osc~;
#X obj 67 44 t f f f;
#X obj 262 45 t f f f;
#X obj 67 72 mtof;
#X obj 121 145 mtof;
#X obj 161 95 mtof;
#X obj -37 7 inlet;
#X text -46 -14 l-r location;
#X text 49 -14 matrix pitch value;
#X text 255 -11 velocity;
#X obj 67 165 line~;
#X msg 67 142 \$1 5;
#X obj 67 188 osc~;
#X obj 67 119 * 1;
#X connect 0 0 28 0;
#X connect 2 0 29 0;
#X connect 3 0 1 0;
#X connect 4 0 3 1;
#X connect 5 0 31 0;
#X connect 6 0 8 0;
#X connect 7 0 3 0;
#X connect 8 0 14 0;
#X connect 9 0 6 0;
#X connect 10 0 9 0;
#X connect 11 0 27 0;
#X connect 12 0 11 0;
#X connect 13 0 4 0;
#X connect 14 0 7 1;
#X connect 15 0 16 0;
#X connect 16 0 14 1;
#X connect 17 0 23 0;
#X connect 17 1 25 0;
#X connect 18 0 15 0;
#X connect 19 0 7 0;
#X connect 20 0 8 1;
#X connect 21 0 20 0;
#X connect 22 0 17 0;
#X connect 23 0 24 0;
#X connect 24 0 21 1;
#X connect 25 0 26 0;
#X connect 26 0 20 1;
#X connect 27 0 21 0;
#X connect 28 0 30 0;
#X connect 28 1 5 0;
#X connect 28 2 32 0;
#X connect 29 0 22 0;
#X connect 29 1 18 0;
#X connect 29 2 13 0;
#X connect 30 0 40 0;
#X connect 31 0 10 0;
#X connect 32 0 12 0;
#X connect 37 0 39 0;
#X connect 38 0 37 0;
#X connect 39 0 19 0;
#X connect 40 0 38 0;
#X restore 59 95 pd main_sound;
#X obj 59 33 t f f;
#X obj 221 27 t f f;
#N canvas 1103 323 774 704 inital_sound 1;
#X obj 191 29 inlet;
#X obj 250 29 inlet;
#X obj 191 490 outlet~;
#X obj 250 75 select 0;
#X obj 250 213 float 1;
#X msg 250 121 1;
#X msg 250 331 0;
#X obj 250 167 select 1;
#X obj 295 103 bng 15 250 50 0 empty empty empty 17 7 0 10 -262144
-1 -1;
#X msg 323 103 0;
#X obj 250 259 trigger bang bang bang;
#X obj 250 397 line~;
#X msg 379 331 \$1 5;
#X obj 250 305 delay 10;
#X obj 191 466 *~;
#X obj 191 51 mtof;
#X msg 250 357 \$1 700;
#X obj 412 29 inlet;
#X obj 379 305 f 0.15;
#X obj 61 30 inlet;
#X text 409 5 l-r tilt;
#X text 22 8 l-r location;
#X text 245 6 velocity;
#X text 126 5 matrix pitch value;
#X obj 191 377 +~;
#X obj 191 330 line~;
#X msg 191 307 \$1 5;
#X obj 191 353 osc~;
#X connect 0 0 15 0;
#X connect 1 0 3 0;
#X connect 3 0 5 0;
#X connect 3 1 8 0;
#X connect 4 0 7 0;
#X connect 5 0 4 1;
#X connect 6 0 16 0;
#X connect 7 0 10 0;
#X connect 8 0 4 0;
#X connect 9 0 4 1;
#X connect 10 0 13 0;
#X connect 10 1 9 0;
#X connect 10 2 18 0;
#X connect 11 0 14 1;
#X connect 12 0 11 0;
#X connect 13 0 6 0;
#X connect 14 0 2 0;
#X connect 15 0 26 0;
#X connect 16 0 11 0;
#X connect 17 0 18 1;
#X connect 18 0 12 0;
#X connect 24 0 14 0;
#X connect 25 0 27 0;
#X connect 26 0 25 0;
#X connect 27 0 24 0;
#X restore 190 95 pd inital_sound;
#X obj 282 -27 inlet;
#X obj 371 -26 inlet;
#X text 217 -45 velocity;
#X text 278 -44 l-r location;
#X text 28 -44 matrix pitch value;
#X text 365 -44 l-r tilt;
#X connect 0 0 4 0;
#X connect 1 0 5 0;
#X connect 3 0 2 0;
#X connect 4 0 3 1;
#X connect 4 1 6 1;
#X connect 5 0 3 2;
#X connect 5 1 6 2;
#X connect 6 0 2 0;
#X connect 7 0 6 0;
#X connect 7 0 3 0;
#X connect 8 0 6 3;
