#N canvas 0 22 426 735 10;
#X obj -53 691 dac~;
#X obj 70 45 r rev1;
#X obj -30 45 r freq1;
#X obj 20 45 r gain1;
#X obj -30 102 r freq2;
#X obj 20 102 r gain2;
#X obj 70 102 r rev2;
#X obj -30 161 r freq3;
#X obj 20 161 r gain3;
#X obj 70 161 r rev3;
#X obj -30 218 r freq4;
#X obj 20 218 r gain4;
#X obj 70 218 r rev4;
#X obj -30 276 r freq5;
#X obj 20 276 r gain5;
#X obj 70 276 r rev5;
#X obj -30 333 r freq6;
#X obj 20 333 r gain6;
#X obj 70 333 r rev6;
#X obj -30 392 r freq7;
#X obj 21 392 r gain7;
#X obj 71 392 r rev7;
#X obj -29 451 r freq8;
#X obj 21 451 r gain8;
#X obj 71 451 r rev8;
#X obj -44 191 canvas_audio_generator;
#X obj -44 75 canvas_audio_generator;
#X obj -44 132 canvas_audio_generator;
#X obj -44 248 canvas_audio_generator;
#X obj -44 306 canvas_audio_generator;
#X obj -44 363 canvas_audio_generator;
#X obj -43 422 canvas_audio_generator;
#X obj -43 481 canvas_audio_generator;
#X obj 42 554 r rev;
#X obj 15 594 * 20;
#X obj 74 594 * -100;
#X obj 15 621 + 80;
#X obj 74 620 + 100;
#X obj -43 658 rev2~ 100 95 3000 50;
#X obj 185 45 r initialGain;
#X text 25 527 up-down tilt;
#X connect 1 0 26 2;
#X connect 2 0 26 0;
#X connect 3 0 26 1;
#X connect 4 0 27 0;
#X connect 5 0 27 1;
#X connect 6 0 27 2;
#X connect 7 0 25 0;
#X connect 8 0 25 1;
#X connect 9 0 25 2;
#X connect 10 0 28 0;
#X connect 11 0 28 1;
#X connect 12 0 28 2;
#X connect 13 0 29 0;
#X connect 14 0 29 1;
#X connect 15 0 29 2;
#X connect 16 0 30 0;
#X connect 17 0 30 1;
#X connect 18 0 30 2;
#X connect 19 0 31 0;
#X connect 20 0 31 1;
#X connect 21 0 31 2;
#X connect 22 0 32 0;
#X connect 23 0 32 1;
#X connect 24 0 32 2;
#X connect 25 0 38 0;
#X connect 26 0 38 0;
#X connect 27 0 38 0;
#X connect 28 0 38 0;
#X connect 29 0 38 0;
#X connect 30 0 38 0;
#X connect 31 0 38 0;
#X connect 32 0 38 0;
#X connect 33 0 34 0;
#X connect 33 0 35 0;
#X connect 34 0 36 0;
#X connect 35 0 37 0;
#X connect 36 0 38 2;
#X connect 37 0 38 4;
#X connect 38 0 0 0;
#X connect 38 0 0 1;
#X connect 39 0 26 3;
#X connect 39 0 27 3;
#X connect 39 0 25 3;
#X connect 39 0 28 3;
#X connect 39 0 29 3;
#X connect 39 0 30 3;
#X connect 39 0 31 3;
#X connect 39 0 32 3;
